<svg xmlns="http://www.w3.org/2000/svg" width="50" height="50" viewBox="0 0 120 120">
    <clipPath id="safety">
        <path transform="matrix(1 0 0 -1 0 120)" d="M0 120h120V0H0z"/>
    </clipPath>
        <path d="M25.246 29.18h16.937c3.497-8.371 3.715-14.625 3.723-24.707C34.2 6.797 25.211 16.953 24.7 29.207c.18-.02.36-.027.547-.027M56.66 4.59c.012 10.012.238 16.242 3.727 24.59h16.394c.18 0 .36.008.54.027-.5-12.062-9.22-22.09-20.66-24.617" fill="#ffda8f"/>
        <path d="M25.246 39.914h51.535c.246 0 .492-.02.731-.055a5.376 5.376 0 004.632-5.316c0-2.77-2.12-5.063-4.824-5.336a4.852 4.852 0 00-.539-.027H25.246c-.187 0-.367.007-.547.027-2.695.273-4.824 2.566-4.824 5.336 0 2.707 2.027 4.957 4.641 5.316.238.035.476.055.73.055" fill="#ffda8f" />
        <path d="M42.184 29.18h18.203c-3.488-8.348-3.715-14.578-3.726-24.59V3.489c0-.637-.528-1.164-1.164-1.164H47.07c-.641 0-1.164.527-1.164 1.164v.984c-.008 10.082-.227 16.336-3.723 24.707" fill="#ffe6b4" />
        <path d="M51.012 72.246c2.098-.008 4.203-.453 6.605-1.344 2.77-1.023 5.415-2.566 7.82-4.445 7.087-5.543 12.075-14.055 12.075-21.199V39.86a5.038 5.038 0 01-.73.055H25.246c-.254 0-.492-.02-.73-.055v5.4c0 7.143 4.988 15.655 12.074 21.198 2.39 1.875 5.024 3.41 7.78 4.437 2.415.9 4.529 1.352 6.642 1.352" fill="#f5c6af" />
        <path d="M10.531 111.938h79.855c-2.652-3.067-4.945-6.606-5.984-8.532-3.687-6.864-4.844-12.426-4.664-20.098 2.973-.258 6.082-1.289 9.07-2.828-4.25-5.19-9.98-9.652-17.683-12.402 2.312 9.086-2.239 14.695-5.383 18.488l-14.73-14.32-14.727 14.32c-3.152-3.793-7.695-9.402-5.39-18.488C13.21 74.39 5.905 89.722 3.135 102.23c-1.62 7.336.227 9.707 7.395 9.707" fill="#ecf2f3" />
        <path d="M30.895 68.078c-2.305 9.086 2.238 14.695 5.39 18.488l14.727-14.32c-2.114 0-4.227-.453-6.64-1.352-2.759-1.027-5.392-2.562-7.783-4.437a46.602 46.602 0 00-5.694 1.621M51.012 72.246l14.73 14.32c3.145-3.793 7.696-9.402 5.383-18.488a46.017 46.017 0 00-5.687-1.62c-2.406 1.878-5.051 3.421-7.821 4.444-2.402.891-4.507 1.336-6.605 1.344" fill="#b5cdcd" />
        <path d="M79.738 83.309c-.18 7.672.977 13.234 4.664 20.098 1.04 1.925 3.332 5.464 5.984 8.53 2.684 3.106 5.72 5.739 8.18 5.739 4.883 0 12.074-10.383 14.16-14.27 3.684-6.863 4.84-12.425 4.664-20.097-6.539-.57-13.76-4.855-18.824-10.18-2.766 2.903-6.176 5.504-9.758 7.352-2.988 1.539-6.097 2.57-9.07 2.828" fill="#e0ef9b" />
        <path d="M95.027 95.672a2.327 2.327 0 00-3.262.434 2.33 2.33 0 00.438 3.26l3.972 3.036c.422.32.918.48 1.411.48.636 0 1.27-.261 1.726-.765l7.594-8.386a2.323 2.323 0 10-3.445-3.121l-6.16 6.8z"/>
        <path d="M110.676 102.3c-2.75 5.134-9.188 13.048-12.11 13.048-2.921 0-9.363-7.914-12.113-13.051-3.074-5.711-4.336-10.476-4.402-16.965 2.508-.476 5.117-1.414 7.688-2.722a2.91 2.91 0 00.265-.137 39.167 39.167 0 008.559-6.074c4.953 4.62 10.984 7.879 16.515 8.933-.07 6.489-1.332 11.254-4.402 16.969M65.535 83.12l-9.527-9.261a27.262 27.262 0 002.418-.778c2.633-.976 5.176-2.39 7.53-4.117a45.47 45.47 0 013.185.898c1.117 5.98-1.2 10.11-3.606 13.258m-29.043 0c-2.406-3.14-4.726-7.27-3.613-13.258a45.708 45.708 0 013.188-.898c2.343 1.719 4.87 3.133 7.496 4.109a27.01 27.01 0 002.449.79zM26.84 45.258v-3.02h48.348v3.02c0 8.863-8.59 19.828-18.383 23.465-4.285 1.594-7.324 1.59-11.621-.004-9.77-3.652-18.344-14.613-18.344-23.461m-1.594-13.75H40.8c.137.109.27.125.383 0H76.78a3.04 3.04 0 013.04 3.035 3.047 3.047 0 01-3.04 3.047H25.246a3.04 3.04 0 110-6.082m18.32-24.016c-.078 7.75-.523 12.993-2.956 19.364H27.262c1.328-8.926 7.742-16.528 16.305-19.364m4.664-2.84h6.105c.012 9 .242 15.098 2.68 22.204H45.555c2.433-7.106 2.66-13.203 2.676-22.203m26.535 22.203H61.96c-2.418-6.321-2.875-11.532-2.957-19.18 8.387 2.969 14.484 10.367 15.762 19.18m44.953 56.402a2.328 2.328 0 00-2.125-2.266c-5.531-.48-12.34-4.2-17.344-9.464a2.324 2.324 0 00-3.371 0 35.207 35.207 0 01-7.543 5.992c-4.72-5.27-10.531-9.153-17.34-11.598a3.285 3.285 0 00-.183-.062 46.016 46.016 0 00-1.61-.54c5.762-5.742 9.637-13.292 9.637-20.062v-3.656a7.701 7.701 0 004.629-7.06c0-3.276-2.063-6.081-4.957-7.186C78.317 15.754 70.14 6 58.91 2.77A3.498 3.498 0 0055.496 0H47.07a3.493 3.493 0 00-3.372 2.606 28.899 28.899 0 00-14.351 8.988 28.743 28.743 0 00-6.836 15.766c-2.9 1.1-4.961 3.906-4.961 7.183 0 3.16 1.91 5.875 4.637 7.063v3.652c0 6.766 3.875 14.316 9.636 20.063a46.34 46.34 0 00-1.566.523 1.821 1.821 0 00-.293.105c-7.625 2.75-13.988 7.3-18.973 13.586-4.793 6.047-8.2 13.512-10.125 22.192-.687 3.105-1.203 7 .91 9.637 2.067 2.57 5.766 2.902 8.754 2.902h15.215a2.328 2.328 0 000-4.653H10.53c-2.781 0-4.503-.39-5.125-1.164-.656-.816-.656-2.742 0-5.714C7.824 91.848 13.73 78.528 27.969 71.8c-.438 7.855 3.82 12.992 6.527 16.25.414.5 1.016.8 1.664.836a2.316 2.316 0 001.746-.652l13.106-12.746L64.12 88.235c.438.42 1.02.656 1.62.656.044 0 .087 0 .126-.004a2.325 2.325 0 001.668-.836c2.7-3.262 6.95-8.402 6.516-16.242a37.117 37.117 0 0110.922 7.847c-1.875.723-3.72 1.188-5.438 1.336a2.33 2.33 0 00-2.121 2.266c-.195 8.313 1.192 14.27 4.942 21.242.03.059 1.297 2.328 3.269 5.113H46.797a2.326 2.326 0 000 4.653H89.32c2.804 3.098 6.109 5.734 9.246 5.734 7.562 0 16.129-15.347 16.21-15.5 3.743-6.972 5.126-12.93 4.942-21.242"/>
        <path d="M36.27 109.613a2.326 2.326 0 000 4.652h.015a2.321 2.321 0 002.317-2.328 2.332 2.332 0 00-2.332-2.324"/>
</svg>
